# xmcd CD database file
#
# Track frame offsets:
#	150
#	20341
#	38228
#	62031
#	80465
#	102550
#	125455
#	146073
#
# Disc length: 2184 seconds
#
# Revision: 0
# Processed by: cddbd v1.5.2PL0 Copyright (c) Steve Scherf et al.
# Submitted via: CDex 1.70beta2
#
DISCID=6b088608
DTITLE=Alcot - growing
DYEAR=1900
DGENRE=ポップ
TTITLE0=days -Special(^-^)Smile Mix-／KIRIKO
TTITLE1=Fairchild -Hyper Euro Mix-／榊原ゆい
TTITLE2=Triptych -fripSide arrange version-／真理絵
TTITLE3=月と夢 -fripSide arrange version-／真理絵
TTITLE4=Clover Heart's -Stylish Cafe style-／KIRIKO
TTITLE5=Honey -Magical TOY Mix-／結月そら
TTITLE6=ひまわり -ELECTRONIC FLOWER Mix-／結月そら
TTITLE7=晴れのち曇り、時々雨 -Fantastic Techno Mix-／榊原ゆい
EXTD=
EXTT0=
EXTT1=
EXTT2=
EXTT3=
EXTT4=
EXTT5=
EXTT6=
EXTT7=
PLAYORDER=
